  0
SECTION
  2
BLOCKS
  0
ENDSEC
  0
SECTION
  2
ENTITIES
  0
LINE
  8
0
 10
-86.6025
 20
-50
 11
86.6025
 21
-50
  0
LINE
  8
0
 10
86.6025
 20
-50
 11
0
 21
100
  0
LINE
  8
0
 10
0
 20
100
 11
-86.6025
 21
-50
  0
LINE
  8
0
 10
-65.6218
 20
-35
 11
-65.5602
 21
-34.2178
  0
LINE
  8
0
 10
-65.5602
 20
-34.2178
 11
-65.3771
 21
-33.4549
  0
LINE
  8
0
 10
-65.3771
 20
-33.4549
 11
-65.0768
 21
-32.73
  0
LINE
  8
0
 10
-65.0768
 20
-32.73
 11
-4.45503
 21
72.27
  0
LINE
  8
0
 10
-4.45503
 20
72.27
 11
-4.04508
 21
72.9389
  0
LINE
  8
0
 10
-4.04508
 20
72.9389
 11
-3.53553
 21
73.5355
  0
LINE
  8
0
 10
-3.53553
 20
73.5355
 11
-2.93893
 21
74.0451
  0
LINE
  8
0
 10
-2.93893
 20
74.0451
 11
-2.26995
 21
74.455
  0
LINE
  8
0
 10
-2.26995
 20
74.455
 11
-1.54508
 21
74.7553
  0
LINE
  8
0
 10
-1.54508
 20
74.7553
 11
-0.782172
 21
74.9384
  0
LINE
  8
0
 10
-0.782172
 20
74.9384
 11
0
 21
75
  0
LINE
  8
0
 10
0
 20
75
 11
0.782172
 21
74.9384
  0
LINE
  8
0
 10
0.782172
 20
74.9384
 11
1.54508
 21
74.7553
  0
LINE
  8
0
 10
1.54508
 20
74.7553
 11
2.26995
 21
74.455
  0
LINE
  8
0
 10
2.26995
 20
74.455
 11
2.93893
 21
74.0451
  0
LINE
  8
0
 10
2.93893
 20
74.0451
 11
3.53553
 21
73.5355
  0
LINE
  8
0
 10
3.53553
 20
73.5355
 11
4.04508
 21
72.9389
  0
LINE
  8
0
 10
4.04508
 20
72.9389
 11
4.45503
 21
72.27
  0
LINE
  8
0
 10
4.45503
 20
72.27
 11
65.0768
 21
-32.73
  0
LINE
  8
0
 10
65.0768
 20
-32.73
 11
65.3771
 21
-33.4549
  0
LINE
  8
0
 10
65.3771
 20
-33.4549
 11
65.5602
 21
-34.2178
  0
LINE
  8
0
 10
65.5602
 20
-34.2178
 11
65.6218
 21
-35
  0
LINE
  8
0
 10
65.6218
 20
-35
 11
65.5602
 21
-35.7822
  0
LINE
  8
0
 10
65.5602
 20
-35.7822
 11
65.3771
 21
-36.5451
  0
LINE
  8
0
 10
65.3771
 20
-36.5451
 11
65.0768
 21
-37.27
  0
LINE
  8
0
 10
65.0768
 20
-37.27
 11
64.6669
 21
-37.9389
  0
LINE
  8
0
 10
64.6669
 20
-37.9389
 11
64.1573
 21
-38.5355
  0
LINE
  8
0
 10
64.1573
 20
-38.5355
 11
63.5607
 21
-39.0451
  0
LINE
  8
0
 10
63.5607
 20
-39.0451
 11
62.8917
 21
-39.455
  0
LINE
  8
0
 10
62.8917
 20
-39.455
 11
62.1669
 21
-39.7553
  0
LINE
  8
0
 10
62.1669
 20
-39.7553
 11
61.4039
 21
-39.9384
  0
LINE
  8
0
 10
61.4039
 20
-39.9384
 11
60.6218
 21
-40
  0
LINE
  8
0
 10
60.6218
 20
-40
 11
-60.6218
 21
-40
  0
LINE
  8
0
 10
-60.6218
 20
-40
 11
-61.4039
 21
-39.9384
  0
LINE
  8
0
 10
-61.4039
 20
-39.9384
 11
-62.1669
 21
-39.7553
  0
LINE
  8
0
 10
-62.1669
 20
-39.7553
 11
-62.8917
 21
-39.455
  0
LINE
  8
0
 10
-62.8917
 20
-39.455
 11
-63.5607
 21
-39.0451
  0
LINE
  8
0
 10
-63.5607
 20
-39.0451
 11
-64.1573
 21
-38.5355
  0
LINE
  8
0
 10
-64.1573
 20
-38.5355
 11
-64.6669
 21
-37.9389
  0
LINE
  8
0
 10
-64.6669
 20
-37.9389
 11
-65.0768
 21
-37.27
  0
LINE
  8
0
 10
-65.0768
 20
-37.27
 11
-65.3771
 21
-36.5451
  0
LINE
  8
0
 10
-65.3771
 20
-36.5451
 11
-65.5602
 21
-35.7822
  0
LINE
  8
0
 10
-65.5602
 20
-35.7822
 11
-65.6218
 21
-35
  0
ENDSEC
  0
SECTION
  2
OBJECTS
  0
DICTIONARY
  0
ENDSEC
  0
EOF
