  0
SECTION
  2
BLOCKS
  0
ENDSEC
  0
SECTION
  2
ENTITIES
  0
LINE
  8
0
 10
0
 20
100
 11
-86.6025
 21
-50
  0
LINE
  8
0
 10
-86.6025
 20
-50
 11
86.6025
 21
-50
  0
LINE
  8
0
 10
86.6025
 20
-50
 11
0
 21
100
  0
LINE
  8
0
 10
-60.4486
 20
-39.9
 11
-61.2307
 21
-39.8384
  0
LINE
  8
0
 10
-61.2307
 20
-39.8384
 11
-61.9937
 21
-39.6553
  0
LINE
  8
0
 10
-61.9937
 20
-39.6553
 11
-62.7185
 21
-39.355
  0
LINE
  8
0
 10
-62.7185
 20
-39.355
 11
-63.3875
 21
-38.9451
  0
LINE
  8
0
 10
-63.3875
 20
-38.9451
 11
-63.9841
 21
-38.4355
  0
LINE
  8
0
 10
-63.9841
 20
-38.4355
 11
-64.4937
 21
-37.8389
  0
LINE
  8
0
 10
-64.4937
 20
-37.8389
 11
-64.9036
 21
-37.1699
  0
LINE
  8
0
 10
-64.9036
 20
-37.1699
 11
-65.2038
 21
-36.4451
  0
LINE
  8
0
 10
-65.2038
 20
-36.4451
 11
-65.387
 21
-35.6822
  0
LINE
  8
0
 10
-65.387
 20
-35.6822
 11
-65.4486
 21
-34.9
  0
LINE
  8
0
 10
-65.4486
 20
-34.9
 11
-65.387
 21
-34.1178
  0
LINE
  8
0
 10
-65.387
 20
-34.1178
 11
-65.2038
 21
-33.3549
  0
LINE
  8
0
 10
-65.2038
 20
-33.3549
 11
-64.9036
 21
-32.63
  0
LINE
  8
0
 10
-64.9036
 20
-32.63
 11
-4.45503
 21
72.0699
  0
LINE
  8
0
 10
-4.45503
 20
72.0699
 11
-4.04507
 21
72.7389
  0
LINE
  8
0
 10
-4.04507
 20
72.7389
 11
-3.53552
 21
73.3355
  0
LINE
  8
0
 10
-3.53552
 20
73.3355
 11
-2.93892
 21
73.8451
  0
LINE
  8
0
 10
-2.93892
 20
73.8451
 11
-2.26994
 21
74.255
  0
LINE
  8
0
 10
-2.26994
 20
74.255
 11
-1.54507
 21
74.5553
  0
LINE
  8
0
 10
-1.54507
 20
74.5553
 11
-0.782166
 21
74.7384
  0
LINE
  8
0
 10
-0.782166
 20
74.7384
 11
0
 21
74.8
  0
LINE
  8
0
 10
0
 20
74.8
 11
0.782166
 21
74.7384
  0
LINE
  8
0
 10
0.782166
 20
74.7384
 11
1.54507
 21
74.5553
  0
LINE
  8
0
 10
1.54507
 20
74.5553
 11
2.26994
 21
74.255
  0
LINE
  8
0
 10
2.26994
 20
74.255
 11
2.93892
 21
73.8451
  0
LINE
  8
0
 10
2.93892
 20
73.8451
 11
3.53552
 21
73.3355
  0
LINE
  8
0
 10
3.53552
 20
73.3355
 11
4.04507
 21
72.7389
  0
LINE
  8
0
 10
4.04507
 20
72.7389
 11
4.45503
 21
72.0699
  0
LINE
  8
0
 10
4.45503
 20
72.0699
 11
64.9036
 21
-32.63
  0
LINE
  8
0
 10
64.9036
 20
-32.63
 11
65.2038
 21
-33.3549
  0
LINE
  8
0
 10
65.2038
 20
-33.3549
 11
65.387
 21
-34.1178
  0
LINE
  8
0
 10
65.387
 20
-34.1178
 11
65.4486
 21
-34.9
  0
LINE
  8
0
 10
65.4486
 20
-34.9
 11
65.387
 21
-35.6822
  0
LINE
  8
0
 10
65.387
 20
-35.6822
 11
65.2038
 21
-36.4451
  0
LINE
  8
0
 10
65.2038
 20
-36.4451
 11
64.9036
 21
-37.1699
  0
LINE
  8
0
 10
64.9036
 20
-37.1699
 11
64.4937
 21
-37.8389
  0
LINE
  8
0
 10
64.4937
 20
-37.8389
 11
63.9841
 21
-38.4355
  0
LINE
  8
0
 10
63.9841
 20
-38.4355
 11
63.3875
 21
-38.9451
  0
LINE
  8
0
 10
63.3875
 20
-38.9451
 11
62.7185
 21
-39.355
  0
LINE
  8
0
 10
62.7185
 20
-39.355
 11
61.9937
 21
-39.6553
  0
LINE
  8
0
 10
61.9937
 20
-39.6553
 11
61.2307
 21
-39.8384
  0
LINE
  8
0
 10
61.2307
 20
-39.8384
 11
60.4486
 21
-39.9
  0
LINE
  8
0
 10
60.4486
 20
-39.9
 11
-60.4486
 21
-39.9
  0
ENDSEC
  0
SECTION
  2
OBJECTS
  0
DICTIONARY
  0
ENDSEC
  0
EOF
