  0
SECTION
  2
BLOCKS
  0
ENDSEC
  0
SECTION
  2
ENTITIES
  0
LINE
  8
0
 10
0
 20
100
 11
-86.6025
 21
-50
  0
LINE
  8
0
 10
-86.6025
 20
-50
 11
86.6025
 21
-50
  0
LINE
  8
0
 10
86.6025
 20
-50
 11
0
 21
100
  0
LINE
  8
0
 10
-60.6218
 20
-40
 11
-61.4039
 21
-39.9384
  0
LINE
  8
0
 10
-61.4039
 20
-39.9384
 11
-62.1669
 21
-39.7553
  0
LINE
  8
0
 10
-62.1669
 20
-39.7553
 11
-62.8917
 21
-39.455
  0
LINE
  8
0
 10
-62.8917
 20
-39.455
 11
-63.5607
 21
-39.0451
  0
LINE
  8
0
 10
-63.5607
 20
-39.0451
 11
-64.1573
 21
-38.5355
  0
LINE
  8
0
 10
-64.1573
 20
-38.5355
 11
-64.6669
 21
-37.9389
  0
LINE
  8
0
 10
-64.6669
 20
-37.9389
 11
-65.0768
 21
-37.2699
  0
LINE
  8
0
 10
-65.0768
 20
-37.2699
 11
-65.3771
 21
-36.5451
  0
LINE
  8
0
 10
-65.3771
 20
-36.5451
 11
-65.5602
 21
-35.7822
  0
LINE
  8
0
 10
-65.5602
 20
-35.7822
 11
-65.6218
 21
-35
  0
LINE
  8
0
 10
-65.6218
 20
-35
 11
-65.5602
 21
-34.2178
  0
LINE
  8
0
 10
-65.5602
 20
-34.2178
 11
-65.3771
 21
-33.4549
  0
LINE
  8
0
 10
-65.3771
 20
-33.4549
 11
-65.0768
 21
-32.73
  0
LINE
  8
0
 10
-65.0768
 20
-32.73
 11
-4.45503
 21
72.2699
  0
LINE
  8
0
 10
-4.45503
 20
72.2699
 11
-4.04507
 21
72.9389
  0
LINE
  8
0
 10
-4.04507
 20
72.9389
 11
-3.53552
 21
73.5355
  0
LINE
  8
0
 10
-3.53552
 20
73.5355
 11
-2.93892
 21
74.0451
  0
LINE
  8
0
 10
-2.93892
 20
74.0451
 11
-2.26994
 21
74.455
  0
LINE
  8
0
 10
-2.26994
 20
74.455
 11
-1.54507
 21
74.7553
  0
LINE
  8
0
 10
-1.54507
 20
74.7553
 11
-0.782166
 21
74.9384
  0
LINE
  8
0
 10
-0.782166
 20
74.9384
 11
0
 21
75
  0
LINE
  8
0
 10
0
 20
75
 11
0.782166
 21
74.9384
  0
LINE
  8
0
 10
0.782166
 20
74.9384
 11
1.54507
 21
74.7553
  0
LINE
  8
0
 10
1.54507
 20
74.7553
 11
2.26994
 21
74.455
  0
LINE
  8
0
 10
2.26994
 20
74.455
 11
2.93892
 21
74.0451
  0
LINE
  8
0
 10
2.93892
 20
74.0451
 11
3.53552
 21
73.5355
  0
LINE
  8
0
 10
3.53552
 20
73.5355
 11
4.04507
 21
72.9389
  0
LINE
  8
0
 10
4.04507
 20
72.9389
 11
4.45503
 21
72.2699
  0
LINE
  8
0
 10
4.45503
 20
72.2699
 11
65.0768
 21
-32.73
  0
LINE
  8
0
 10
65.0768
 20
-32.73
 11
65.3771
 21
-33.4549
  0
LINE
  8
0
 10
65.3771
 20
-33.4549
 11
65.5602
 21
-34.2178
  0
LINE
  8
0
 10
65.5602
 20
-34.2178
 11
65.6218
 21
-35
  0
LINE
  8
0
 10
65.6218
 20
-35
 11
65.5602
 21
-35.7822
  0
LINE
  8
0
 10
65.5602
 20
-35.7822
 11
65.3771
 21
-36.5451
  0
LINE
  8
0
 10
65.3771
 20
-36.5451
 11
65.0768
 21
-37.2699
  0
LINE
  8
0
 10
65.0768
 20
-37.2699
 11
64.6669
 21
-37.9389
  0
LINE
  8
0
 10
64.6669
 20
-37.9389
 11
64.1573
 21
-38.5355
  0
LINE
  8
0
 10
64.1573
 20
-38.5355
 11
63.5607
 21
-39.0451
  0
LINE
  8
0
 10
63.5607
 20
-39.0451
 11
62.8917
 21
-39.455
  0
LINE
  8
0
 10
62.8917
 20
-39.455
 11
62.1669
 21
-39.7553
  0
LINE
  8
0
 10
62.1669
 20
-39.7553
 11
61.4039
 21
-39.9384
  0
LINE
  8
0
 10
61.4039
 20
-39.9384
 11
60.6218
 21
-40
  0
LINE
  8
0
 10
60.6218
 20
-40
 11
-60.6218
 21
-40
  0
LINE
  8
0
 10
61.3257
 20
-39.4446
 11
62.0123
 21
-39.2797
  0
LINE
  8
0
 10
62.0123
 20
-39.2797
 11
62.6647
 21
-39.0095
  0
LINE
  8
0
 10
62.6647
 20
-39.0095
 11
63.2668
 21
-38.6406
  0
LINE
  8
0
 10
63.2668
 20
-38.6406
 11
63.8038
 21
-38.182
  0
LINE
  8
0
 10
63.8038
 20
-38.182
 11
64.2623
 21
-37.645
  0
LINE
  8
0
 10
64.2623
 20
-37.645
 11
64.6313
 21
-37.043
  0
LINE
  8
0
 10
64.6313
 20
-37.043
 11
64.9015
 21
-36.3906
  0
LINE
  8
0
 10
64.9015
 20
-36.3906
 11
65.0664
 21
-35.7039
  0
LINE
  8
0
 10
65.0664
 20
-35.7039
 11
65.1218
 21
-35
  0
LINE
  8
0
 10
65.1218
 20
-35
 11
65.0664
 21
-34.296
  0
LINE
  8
0
 10
65.0664
 20
-34.296
 11
64.9015
 21
-33.6094
  0
LINE
  8
0
 10
64.9015
 20
-33.6094
 11
64.6313
 21
-32.957
  0
LINE
  8
0
 10
64.6313
 20
-32.957
 11
4.00952
 21
72.043
  0
LINE
  8
0
 10
4.00952
 20
72.043
 11
3.64056
 21
72.645
  0
LINE
  8
0
 10
3.64056
 20
72.645
 11
3.18198
 21
73.182
  0
LINE
  8
0
 10
3.18198
 20
73.182
 11
2.64502
 21
73.6406
  0
LINE
  8
0
 10
2.64502
 20
73.6406
 11
2.04295
 21
74.0095
  0
LINE
  8
0
 10
2.04295
 20
74.0095
 11
1.39056
 21
74.2797
  0
LINE
  8
0
 10
1.39056
 20
74.2797
 11
0.703949
 21
74.4446
  0
LINE
  8
0
 10
0.703949
 20
74.4446
 11
0
 21
74.5
  0
LINE
  8
0
 10
0
 20
74.5
 11
-0.703949
 21
74.4446
  0
LINE
  8
0
 10
-0.703949
 20
74.4446
 11
-1.39056
 21
74.2797
  0
LINE
  8
0
 10
-1.39056
 20
74.2797
 11
-2.04295
 21
74.0095
  0
LINE
  8
0
 10
-2.04295
 20
74.0095
 11
-2.64502
 21
73.6406
  0
LINE
  8
0
 10
-2.64502
 20
73.6406
 11
-3.18198
 21
73.182
  0
LINE
  8
0
 10
-3.18198
 20
73.182
 11
-3.64056
 21
72.645
  0
LINE
  8
0
 10
-3.64056
 20
72.645
 11
-4.00952
 21
72.043
  0
LINE
  8
0
 10
-4.00952
 20
72.043
 11
-64.6313
 21
-32.957
  0
LINE
  8
0
 10
-64.6313
 20
-32.957
 11
-64.9015
 21
-33.6094
  0
LINE
  8
0
 10
-64.9015
 20
-33.6094
 11
-65.0664
 21
-34.296
  0
LINE
  8
0
 10
-65.0664
 20
-34.296
 11
-65.1218
 21
-35
  0
LINE
  8
0
 10
-65.1218
 20
-35
 11
-65.0664
 21
-35.7039
  0
LINE
  8
0
 10
-65.0664
 20
-35.7039
 11
-64.9015
 21
-36.3906
  0
LINE
  8
0
 10
-64.9015
 20
-36.3906
 11
-64.6313
 21
-37.043
  0
LINE
  8
0
 10
-64.6313
 20
-37.043
 11
-64.2623
 21
-37.645
  0
LINE
  8
0
 10
-64.2623
 20
-37.645
 11
-63.8038
 21
-38.182
  0
LINE
  8
0
 10
-63.8038
 20
-38.182
 11
-63.2668
 21
-38.6406
  0
LINE
  8
0
 10
-63.2668
 20
-38.6406
 11
-62.6647
 21
-39.0095
  0
LINE
  8
0
 10
-62.6647
 20
-39.0095
 11
-62.0123
 21
-39.2797
  0
LINE
  8
0
 10
-62.0123
 20
-39.2797
 11
-61.3257
 21
-39.4446
  0
LINE
  8
0
 10
-61.3257
 20
-39.4446
 11
-60.6218
 21
-39.5
  0
LINE
  8
0
 10
-60.6218
 20
-39.5
 11
60.6218
 21
-39.5
  0
LINE
  8
0
 10
60.6218
 20
-39.5
 11
61.3257
 21
-39.4446
  0
ENDSEC
  0
SECTION
  2
OBJECTS
  0
DICTIONARY
  0
ENDSEC
  0
EOF
